<mxfile host="app.diagrams.net" agent="Mozilla/5.0 (Windows NT 10.0; Win64; x64) AppleWebKit/537.36 (KHTML, like Gecko) Chrome/130.0.0.0 Safari/537.36" version="24.8.2">
  <diagram name="Page-1" id="099fd60b-425b-db50-ffb0-6b813814b670">
    <mxGraphModel dx="3850" dy="2706" grid="1" gridSize="10" guides="1" tooltips="1" connect="1" arrows="1" fold="1" page="1" pageScale="1" pageWidth="850" pageHeight="1100" background="none" math="0" shadow="0">
      <root>
        <mxCell id="0" />
        <mxCell id="1" parent="0" />
        <mxCell id="10ed09ecd0ef054a-2" value="" style="shape=rect;dashed=0;shadow=0;html=1;whiteSpace=wrap;rotation=0;rounded=0;comic=0;labelBackgroundColor=none;strokeWidth=1;fontFamily=Verdana;fontSize=12;align=center;" parent="1" vertex="1">
          <mxGeometry x="58" y="320" width="695" height="40" as="geometry" />
        </mxCell>
        <mxCell id="10ed09ecd0ef054a-3" value="LIGO" style="shape=rect;dashed=0;shadow=0;html=1;whiteSpace=wrap;rotation=270;rounded=0;comic=0;labelBackgroundColor=none;strokeWidth=1;fontFamily=Verdana;fontSize=12;align=center;" parent="1" vertex="1">
          <mxGeometry x="97.5" y="300" width="637.5" height="40" as="geometry" />
        </mxCell>
        <mxCell id="10ed09ecd0ef054a-4" value="60x40" style="shape=rect;dashed=0;shadow=0;html=1;whiteSpace=wrap;rounded=0;comic=0;labelBackgroundColor=none;strokeWidth=1;fontFamily=Verdana;fontSize=12;lign=center;" parent="1" vertex="1">
          <mxGeometry x="890" y="3230" width="319" height="30" as="geometry" />
        </mxCell>
        <mxCell id="10ed09ecd0ef054a-5" value="" style="verticalLabelPosition=bottom;dashed=0;shadow=0;html=1;align=center;verticalAlign=top;strokeWidth=1;shape=mxgraph.cabinets.motorized_switch_3p;rounded=0;comic=0;labelBackgroundColor=none;fontFamily=Verdana;fontSize=12" parent="1" vertex="1">
          <mxGeometry x="1113" y="3348" width="85" height="70" as="geometry" />
        </mxCell>
        <mxCell id="10ed09ecd0ef054a-6" value="" style="whiteSpace=wrap;html=1;rounded=0;shadow=0;comic=0;labelBackgroundColor=none;strokeWidth=1;fontFamily=Verdana;fontSize=12;align=center;rotation=0;" parent="1" vertex="1">
          <mxGeometry x="-160" y="560" width="361" height="12" as="geometry" />
        </mxCell>
        <mxCell id="10ed09ecd0ef054a-7" value="" style="whiteSpace=wrap;html=1;rounded=0;shadow=0;comic=0;labelBackgroundColor=none;strokeWidth=1;fontFamily=Verdana;fontSize=12;align=center;rotation=90;" parent="1" vertex="1">
          <mxGeometry x="27.5" y="732.5" width="356" height="12" as="geometry" />
        </mxCell>
        <mxCell id="10ed09ecd0ef054a-8" value="" style="whiteSpace=wrap;html=1;rounded=0;shadow=0;comic=0;labelBackgroundColor=none;strokeWidth=1;fontFamily=Verdana;fontSize=12;align=center;rotation=0;" parent="1" vertex="1">
          <mxGeometry x="-267.5" y="1539" width="361" height="12" as="geometry" />
        </mxCell>
        <mxCell id="10ed09ecd0ef054a-12" value="" style="ellipse;whiteSpace=wrap;html=1;rounded=0;shadow=0;comic=0;labelBackgroundColor=none;strokeWidth=1;fontFamily=Verdana;fontSize=12;align=center;dashed=1;" parent="1" vertex="1">
          <mxGeometry x="1441" y="2648" width="12" height="12" as="geometry" />
        </mxCell>
        <mxCell id="10ed09ecd0ef054a-18" value="" style="ellipse;whiteSpace=wrap;html=1;rounded=0;shadow=0;comic=0;labelBackgroundColor=none;strokeWidth=1;fontFamily=Verdana;fontSize=12;align=center;dashed=1;" parent="1" vertex="1">
          <mxGeometry x="1441" y="2628" width="12" height="12" as="geometry" />
        </mxCell>
        <mxCell id="10ed09ecd0ef054a-21" value="" style="ellipse;whiteSpace=wrap;html=1;rounded=0;shadow=0;comic=0;labelBackgroundColor=none;strokeWidth=1;fontFamily=Verdana;fontSize=12;align=center;dashed=1;" parent="1" vertex="1">
          <mxGeometry x="1441" y="2608" width="12" height="12" as="geometry" />
        </mxCell>
        <mxCell id="10ed09ecd0ef054a-24" value="" style="ellipse;whiteSpace=wrap;html=1;rounded=0;shadow=0;comic=0;labelBackgroundColor=none;strokeWidth=1;fontFamily=Verdana;fontSize=12;align=center;dashed=1;" parent="1" vertex="1">
          <mxGeometry x="1441" y="2588" width="12" height="12" as="geometry" />
        </mxCell>
        <mxCell id="10ed09ecd0ef054a-25" value="" style="whiteSpace=wrap;html=1;rounded=0;shadow=0;comic=0;labelBackgroundColor=none;strokeWidth=1;ontFamily=Verdana;fontSize=12;align=center;rotation=-90;" parent="1" vertex="1">
          <mxGeometry x="1264" y="2918" width="157" height="12" as="geometry" />
        </mxCell>
        <mxCell id="10ed09ecd0ef054a-26" value="" style="whiteSpace=wrap;html=1;rounded=0;shadow=0;comic=0;labelBackgroundColor=none;strokeWidth=1;ontFamily=Verdana;fontSize=12;align=center;rotation=-90;" parent="1" vertex="1">
          <mxGeometry x="1229" y="2928" width="177" height="12" as="geometry" />
        </mxCell>
        <mxCell id="10ed09ecd0ef054a-27" value="" style="whiteSpace=wrap;html=1;rounded=0;shadow=0;comic=0;labelBackgroundColor=none;strokeWidth=1;ontFamily=Verdana;fontSize=12;align=center;rotation=-90;" parent="1" vertex="1">
          <mxGeometry x="1194" y="2938" width="197" height="12" as="geometry" />
        </mxCell>
        <mxCell id="10ed09ecd0ef054a-28" value="" style="whiteSpace=wrap;html=1;rounded=0;shadow=0;comic=0;labelBackgroundColor=none;strokeWidth=1;fontFamily=Verdana;fontSize=12;align=center;rotation=-90;" parent="1" vertex="1">
          <mxGeometry x="1213" y="2719" width="159" height="12" as="geometry" />
        </mxCell>
        <mxCell id="10ed09ecd0ef054a-29" value="" style="whiteSpace=wrap;html=1;rounded=0;shadow=0;comic=0;labelBackgroundColor=none;strokeWidth=1;fontFamily=Verdana;fontSize=12;align=center;rotation=-90;" parent="1" vertex="1">
          <mxGeometry x="1238" y="2719" width="159" height="12" as="geometry" />
        </mxCell>
        <mxCell id="10ed09ecd0ef054a-30" value="" style="whiteSpace=wrap;html=1;rounded=0;shadow=0;comic=0;labelBackgroundColor=none;strokeWidth=1;fontFamily=Verdana;fontSize=12;align=center;rotation=-90;" parent="1" vertex="1">
          <mxGeometry x="1263" y="2719" width="159" height="12" as="geometry" />
        </mxCell>
        <mxCell id="10ed09ecd0ef054a-31" value="60x40" style="shape=rect;dashed=0;shadow=0;html=1;whiteSpace=wrap;rounded=0;comic=0;labelBackgroundColor=none;strokeWidth=1;fontFamily=Verdana;fontSize=12;align=center;" parent="1" vertex="1">
          <mxGeometry x="1070" y="2856" width="319" height="30" as="geometry" />
        </mxCell>
        <mxCell id="10ed09ecd0ef054a-32" value="60x40" style="shape=rect;dashed=0;shadow=0;html=1;whiteSpace=wrap;rounded=0;comic=0;labelBackgroundColor=none;strokeWidth=1;fontFamily=Verdana;fontSize=12;align=center;" parent="1" vertex="1">
          <mxGeometry x="1070" y="2600" width="319" height="30" as="geometry" />
        </mxCell>
        <mxCell id="10ed09ecd0ef054a-33" value="60x40" style="shape=rect;dashed=0;shadow=0;html=1;whiteSpace=wrap;rounded=0;comic=0;labelBackgroundColor=none;strokeWidth=1;fontFamily=Verdana;fontSize=12;align=center;" parent="1" vertex="1">
          <mxGeometry x="789" y="3578" width="319" height="30" as="geometry" />
        </mxCell>
        <mxCell id="10ed09ecd0ef054a-34" value="60x40" style="shape=rect;dashed=0;shadow=0;html=1;whiteSpace=wrap;rounded=0;comic=0;labelBackgroundColor=none;strokeWidth=1;fontFamily=Verdana;fontSize=12;align=center;" parent="1" vertex="1">
          <mxGeometry x="789" y="3370" width="319" height="30" as="geometry" />
        </mxCell>
        <mxCell id="10ed09ecd0ef054a-35" value="" style="verticalLabelPosition=bottom;dashed=0;shadow=0;html=1;align=center;verticalAlign=top;strokeWidth=1;shape=mxgraph.cabinets.cb_3p;rounded=0;comic=0;labelBackgroundColor=none;fontFamily=Verdana;fontSize=12" parent="1" vertex="1">
          <mxGeometry x="899" y="3270" width="27" height="50" as="geometry" />
        </mxCell>
        <mxCell id="10ed09ecd0ef054a-36" value="" style="verticalLabelPosition=bottom;dashed=0;shadow=0;html=1;align=center;verticalAlign=top;strokeWidth=1;shape=mxgraph.cabinets.cb_3p;rounded=0;comic=0;labelBackgroundColor=none;fontFamily=Verdana;fontSize=12" parent="1" vertex="1">
          <mxGeometry x="926" y="3270" width="27" height="50" as="geometry" />
        </mxCell>
        <mxCell id="10ed09ecd0ef054a-37" value="" style="verticalLabelPosition=bottom;dashed=0;shadow=0;html=1;align=center;verticalAlign=top;strokeWidth=1;shape=mxgraph.cabinets.cb_3p;rounded=0;comic=0;labelBackgroundColor=none;fontFamily=Verdana;fontSize=12" parent="1" vertex="1">
          <mxGeometry x="953" y="3270" width="27" height="50" as="geometry" />
        </mxCell>
        <mxCell id="10ed09ecd0ef054a-38" value="" style="verticalLabelPosition=bottom;dashed=0;shadow=0;html=1;align=center;verticalAlign=top;strokeWidth=1;shape=mxgraph.cabinets.cb_3p;rounded=0;comic=0;labelBackgroundColor=none;fontFamily=Verdana;fontSize=12" parent="1" vertex="1">
          <mxGeometry x="980" y="3270" width="27" height="50" as="geometry" />
        </mxCell>
        <mxCell id="10ed09ecd0ef054a-39" value="" style="verticalLabelPosition=bottom;dashed=0;shadow=0;html=1;align=center;verticalAlign=top;strokeWidth=1;shape=mxgraph.cabinets.cb_3p;rounded=0;comic=0;labelBackgroundColor=none;fontFamily=Verdana;fontSize=12" parent="1" vertex="1">
          <mxGeometry x="1007" y="3270" width="27" height="50" as="geometry" />
        </mxCell>
        <mxCell id="10ed09ecd0ef054a-40" value="" style="verticalLabelPosition=bottom;dashed=0;shadow=0;html=1;align=center;verticalAlign=top;strokeWidth=1;shape=mxgraph.cabinets.cb_3p;rounded=0;comic=0;labelBackgroundColor=none;fontFamily=Verdana;fontSize=12" parent="1" vertex="1">
          <mxGeometry x="1034" y="3270" width="27" height="50" as="geometry" />
        </mxCell>
        <mxCell id="10ed09ecd0ef054a-41" value="" style="verticalLabelPosition=bottom;dashed=0;shadow=0;html=1;align=center;verticalAlign=top;strokeWidth=1;shape=mxgraph.cabinets.cb_3p;rounded=0;comic=0;labelBackgroundColor=none;fontFamily=Verdana;fontSize=12" parent="1" vertex="1">
          <mxGeometry x="1061" y="3270" width="27" height="50" as="geometry" />
        </mxCell>
        <mxCell id="10ed09ecd0ef054a-42" value="" style="verticalLabelPosition=bottom;dashed=0;shadow=0;html=1;align=center;verticalAlign=top;strokeWidth=1;shape=mxgraph.cabinets.cb_3p;rounded=0;comic=0;labelBackgroundColor=none;fontFamily=Verdana;fontSize=12" parent="1" vertex="1">
          <mxGeometry x="1088" y="3270" width="27" height="50" as="geometry" />
        </mxCell>
        <mxCell id="10ed09ecd0ef054a-43" value="" style="verticalLabelPosition=bottom;dashed=0;shadow=0;html=1;align=center;verticalAlign=top;strokeWidth=1;shape=mxgraph.cabinets.cb_3p;rounded=0;comic=0;labelBackgroundColor=none;fontFamily=Verdana;fontSize=12" parent="1" vertex="1">
          <mxGeometry x="1115" y="3270" width="27" height="50" as="geometry" />
        </mxCell>
        <mxCell id="10ed09ecd0ef054a-44" value="" style="verticalLabelPosition=bottom;dashed=0;shadow=0;html=1;align=center;verticalAlign=top;strokeWidth=1;shape=mxgraph.cabinets.cb_3p;rounded=0;comic=0;labelBackgroundColor=none;fontFamily=Verdana;fontSize=12" parent="1" vertex="1">
          <mxGeometry x="1142" y="3270" width="27" height="50" as="geometry" />
        </mxCell>
        <mxCell id="10ed09ecd0ef054a-47" value="" style="verticalLabelPosition=bottom;dashed=0;shadow=0;html=1;align=center;verticalAlign=top;strokeWidth=1;shape=mxgraph.cabinets.contactor_32_125a;rounded=0;comic=0;labelBackgroundColor=none;fontFamily=Verdana;fontSize=12" parent="1" vertex="1">
          <mxGeometry x="794" y="3510" width="30" height="50" as="geometry" />
        </mxCell>
        <mxCell id="10ed09ecd0ef054a-48" value="" style="verticalLabelPosition=bottom;dashed=0;shadow=0;html=1;align=center;verticalAlign=top;strokeWidth=1;shape=mxgraph.cabinets.contactor_32_125a;rounded=0;comic=0;labelBackgroundColor=none;fontFamily=Verdana;fontSize=12" parent="1" vertex="1">
          <mxGeometry x="824" y="3510" width="30" height="50" as="geometry" />
        </mxCell>
        <mxCell id="10ed09ecd0ef054a-49" value="" style="verticalLabelPosition=bottom;dashed=0;shadow=0;html=1;align=center;verticalAlign=top;strokeWidth=1;shape=mxgraph.cabinets.contactor_32_125a;rounded=0;comic=0;labelBackgroundColor=none;fontFamily=Verdana;fontSize=12" parent="1" vertex="1">
          <mxGeometry x="854" y="3510" width="30" height="50" as="geometry" />
        </mxCell>
        <mxCell id="10ed09ecd0ef054a-50" value="" style="verticalLabelPosition=bottom;dashed=0;shadow=0;html=1;align=center;verticalAlign=top;strokeWidth=1;shape=mxgraph.cabinets.contactor_32_125a;rounded=0;comic=0;labelBackgroundColor=none;fontFamily=Verdana;fontSize=12" parent="1" vertex="1">
          <mxGeometry x="884" y="3510" width="30" height="50" as="geometry" />
        </mxCell>
        <mxCell id="10ed09ecd0ef054a-51" value="" style="verticalLabelPosition=bottom;dashed=0;shadow=0;html=1;align=center;verticalAlign=top;strokeWidth=1;shape=mxgraph.cabinets.contactor_32_125a;rounded=0;comic=0;labelBackgroundColor=none;fontFamily=Verdana;fontSize=12" parent="1" vertex="1">
          <mxGeometry x="1025" y="3058" width="30" height="50" as="geometry" />
        </mxCell>
        <mxCell id="10ed09ecd0ef054a-52" value="" style="verticalLabelPosition=bottom;dashed=0;shadow=0;html=1;align=center;verticalAlign=top;strokeWidth=1;shape=mxgraph.cabinets.contactor_32_125a;rounded=0;comic=0;labelBackgroundColor=none;fontFamily=Verdana;fontSize=12" parent="1" vertex="1">
          <mxGeometry x="1055" y="3058" width="30" height="50" as="geometry" />
        </mxCell>
        <mxCell id="10ed09ecd0ef054a-53" value="" style="verticalLabelPosition=bottom;dashed=0;shadow=0;html=1;align=center;verticalAlign=top;strokeWidth=1;shape=mxgraph.cabinets.contactor_32_125a;rounded=0;comic=0;labelBackgroundColor=none;fontFamily=Verdana;fontSize=12" parent="1" vertex="1">
          <mxGeometry x="1085" y="3058" width="30" height="50" as="geometry" />
        </mxCell>
        <mxCell id="10ed09ecd0ef054a-54" value="" style="verticalLabelPosition=bottom;dashed=0;shadow=0;html=1;align=center;verticalAlign=top;strokeWidth=1;shape=mxgraph.cabinets.contactor_32_125a;rounded=0;comic=0;labelBackgroundColor=none;fontFamily=Verdana;fontSize=12" parent="1" vertex="1">
          <mxGeometry x="1115" y="3058" width="30" height="50" as="geometry" />
        </mxCell>
        <mxCell id="10ed09ecd0ef054a-55" value="" style="verticalLabelPosition=bottom;dashed=0;shadow=0;html=1;align=center;verticalAlign=top;strokeWidth=1;shape=mxgraph.cabinets.contactor_32_125a;rounded=0;comic=0;labelBackgroundColor=none;fontFamily=Verdana;fontSize=12" parent="1" vertex="1">
          <mxGeometry x="1145" y="3058" width="30" height="50" as="geometry" />
        </mxCell>
        <mxCell id="10ed09ecd0ef054a-56" value="" style="verticalLabelPosition=bottom;dashed=0;shadow=0;html=1;align=center;verticalAlign=top;strokeWidth=1;shape=mxgraph.cabinets.contactor_32_125a;rounded=0;comic=0;labelBackgroundColor=none;fontFamily=Verdana;fontSize=12" parent="1" vertex="1">
          <mxGeometry x="1175" y="3058" width="30" height="50" as="geometry" />
        </mxCell>
        <mxCell id="10ed09ecd0ef054a-57" value="60x40" style="shape=rect;dashed=0;shadow=0;html=1;whiteSpace=wrap;rounded=0;comic=0;labelBackgroundColor=none;strokeWidth=1;fontFamily=Verdana;fontSize=12;align=center;" parent="1" vertex="1">
          <mxGeometry x="789" y="3470" width="319" height="30" as="geometry" />
        </mxCell>
        <mxCell id="10ed09ecd0ef054a-59" value="" style="verticalLabelPosition=bottom;dashed=0;shadow=0;html=1;align=center;verticalAlign=top;strokeWidth=1;shape=mxgraph.cabinets.motor_cb_1_32a;rounded=0;comic=0;labelBackgroundColor=none;fontFamily=Verdana;fontColor=#000000;" parent="1" vertex="1">
          <mxGeometry x="823" y="3411" width="27" height="43" as="geometry" />
        </mxCell>
        <mxCell id="10ed09ecd0ef054a-60" value="" style="verticalLabelPosition=bottom;dashed=0;shadow=0;html=1;align=center;verticalAlign=top;strokeWidth=1;shape=mxgraph.cabinets.motor_cb_1_32a;rounded=0;comic=0;labelBackgroundColor=none;fontFamily=Verdana;fontColor=#000000;" parent="1" vertex="1">
          <mxGeometry x="854" y="3411" width="27" height="43" as="geometry" />
        </mxCell>
        <mxCell id="10ed09ecd0ef054a-61" value="" style="verticalLabelPosition=bottom;dashed=0;shadow=0;html=1;align=center;verticalAlign=top;strokeWidth=1;shape=mxgraph.cabinets.motor_cb_1_32a;rounded=0;comic=0;labelBackgroundColor=none;fontFamily=Verdana;fontColor=#000000;" parent="1" vertex="1">
          <mxGeometry x="884" y="3411" width="27" height="43" as="geometry" />
        </mxCell>
        <mxCell id="10ed09ecd0ef054a-62" value="" style="verticalLabelPosition=bottom;dashed=0;shadow=0;html=1;align=center;verticalAlign=top;strokeWidth=1;shape=mxgraph.cabinets.motor_cb_1_32a;rounded=0;comic=0;labelBackgroundColor=none;fontFamily=Verdana;fontColor=#000000;" parent="1" vertex="1">
          <mxGeometry x="1025" y="2959" width="27" height="43" as="geometry" />
        </mxCell>
        <mxCell id="10ed09ecd0ef054a-63" value="" style="verticalLabelPosition=bottom;dashed=0;shadow=0;html=1;align=center;verticalAlign=top;strokeWidth=1;shape=mxgraph.cabinets.motor_cb_1_32a;rounded=0;comic=0;labelBackgroundColor=none;fontFamily=Verdana;fontColor=#000000;" parent="1" vertex="1">
          <mxGeometry x="1056" y="2959" width="27" height="43" as="geometry" />
        </mxCell>
        <mxCell id="10ed09ecd0ef054a-64" value="" style="verticalLabelPosition=bottom;dashed=0;shadow=0;html=1;align=center;verticalAlign=top;strokeWidth=1;shape=mxgraph.cabinets.motor_cb_1_32a;rounded=0;comic=0;labelBackgroundColor=none;fontFamily=Verdana;fontColor=#000000;" parent="1" vertex="1">
          <mxGeometry x="1086" y="2959" width="27" height="43" as="geometry" />
        </mxCell>
        <mxCell id="10ed09ecd0ef054a-65" value="" style="verticalLabelPosition=bottom;dashed=0;shadow=0;html=1;align=center;verticalAlign=top;strokeWidth=1;shape=mxgraph.cabinets.motor_cb_1_32a;rounded=0;comic=0;labelBackgroundColor=none;fontFamily=Verdana;fontColor=#000000;" parent="1" vertex="1">
          <mxGeometry x="1116" y="2959" width="27" height="43" as="geometry" />
        </mxCell>
        <mxCell id="10ed09ecd0ef054a-66" value="" style="verticalLabelPosition=bottom;dashed=0;shadow=0;html=1;align=center;verticalAlign=top;strokeWidth=1;shape=mxgraph.cabinets.motor_cb_1_32a;rounded=0;comic=0;labelBackgroundColor=none;fontFamily=Verdana;fontColor=#000000;" parent="1" vertex="1">
          <mxGeometry x="1147" y="2959" width="27" height="43" as="geometry" />
        </mxCell>
        <mxCell id="10ed09ecd0ef054a-67" value="" style="verticalLabelPosition=bottom;dashed=0;shadow=0;html=1;align=center;verticalAlign=top;strokeWidth=1;shape=mxgraph.cabinets.motor_cb_1_32a;rounded=0;comic=0;labelBackgroundColor=none;fontFamily=Verdana;fontColor=#000000;" parent="1" vertex="1">
          <mxGeometry x="1177" y="2959" width="27" height="43" as="geometry" />
        </mxCell>
        <mxCell id="10ed09ecd0ef054a-68" value="" style="verticalLabelPosition=bottom;dashed=0;shadow=0;html=1;align=center;verticalAlign=top;strokeWidth=1;shape=mxgraph.cabinets.cb_1p;rounded=0;comic=0;labelBackgroundColor=none;fontFamily=Verdana;fontSize=12" parent="1" vertex="1">
          <mxGeometry x="1075" y="2540" width="9" height="50" as="geometry" />
        </mxCell>
        <mxCell id="10ed09ecd0ef054a-69" value="" style="verticalLabelPosition=bottom;dashed=0;shadow=0;html=1;align=center;verticalAlign=top;strokeWidth=1;shape=mxgraph.cabinets.cb_1p;rounded=0;comic=0;labelBackgroundColor=none;fontFamily=Verdana;fontSize=12" parent="1" vertex="1">
          <mxGeometry x="1084" y="2540" width="9" height="50" as="geometry" />
        </mxCell>
        <mxCell id="10ed09ecd0ef054a-70" value="" style="verticalLabelPosition=bottom;dashed=0;shadow=0;html=1;align=center;verticalAlign=top;strokeWidth=1;shape=mxgraph.cabinets.cb_1p;rounded=0;comic=0;labelBackgroundColor=none;fontFamily=Verdana;fontSize=12" parent="1" vertex="1">
          <mxGeometry x="1093" y="2540" width="9" height="50" as="geometry" />
        </mxCell>
        <mxCell id="10ed09ecd0ef054a-71" value="" style="verticalLabelPosition=bottom;dashed=0;shadow=0;html=1;align=center;verticalAlign=top;strokeWidth=1;shape=mxgraph.cabinets.cb_1p;rounded=0;comic=0;labelBackgroundColor=none;fontFamily=Verdana;fontSize=12" parent="1" vertex="1">
          <mxGeometry x="1102" y="2540" width="9" height="50" as="geometry" />
        </mxCell>
        <mxCell id="10ed09ecd0ef054a-72" value="" style="verticalLabelPosition=bottom;dashed=0;shadow=0;html=1;align=center;verticalAlign=top;strokeWidth=1;shape=mxgraph.cabinets.cb_1p;rounded=0;comic=0;labelBackgroundColor=none;fontFamily=Verdana;fontSize=12" parent="1" vertex="1">
          <mxGeometry x="1111" y="2540" width="9" height="50" as="geometry" />
        </mxCell>
        <mxCell id="10ed09ecd0ef054a-73" value="" style="verticalLabelPosition=bottom;dashed=0;shadow=0;html=1;align=center;verticalAlign=top;strokeWidth=1;shape=mxgraph.cabinets.cb_1p;rounded=0;comic=0;labelBackgroundColor=none;fontFamily=Verdana;fontSize=12" parent="1" vertex="1">
          <mxGeometry x="1120" y="2540" width="9" height="50" as="geometry" />
        </mxCell>
        <mxCell id="10ed09ecd0ef054a-74" value="" style="verticalLabelPosition=bottom;dashed=0;shadow=0;html=1;align=center;verticalAlign=top;strokeWidth=1;shape=mxgraph.cabinets.cb_1p;rounded=0;comic=0;labelBackgroundColor=none;fontFamily=Verdana;fontSize=12" parent="1" vertex="1">
          <mxGeometry x="1129" y="2540" width="9" height="50" as="geometry" />
        </mxCell>
        <mxCell id="10ed09ecd0ef054a-75" value="" style="verticalLabelPosition=bottom;dashed=0;shadow=0;html=1;align=center;verticalAlign=top;strokeWidth=1;shape=mxgraph.cabinets.cb_1p;rounded=0;comic=0;labelBackgroundColor=none;fontFamily=Verdana;fontSize=12" parent="1" vertex="1">
          <mxGeometry x="1138" y="2540" width="9" height="50" as="geometry" />
        </mxCell>
        <mxCell id="10ed09ecd0ef054a-76" value="" style="verticalLabelPosition=bottom;dashed=0;shadow=0;html=1;align=center;verticalAlign=top;strokeWidth=1;shape=mxgraph.cabinets.cb_1p;rounded=0;comic=0;labelBackgroundColor=none;fontFamily=Verdana;fontSize=12" parent="1" vertex="1">
          <mxGeometry x="1147" y="2540" width="9" height="50" as="geometry" />
        </mxCell>
        <mxCell id="10ed09ecd0ef054a-77" value="" style="verticalLabelPosition=bottom;dashed=0;shadow=0;html=1;align=center;verticalAlign=top;strokeWidth=1;shape=mxgraph.cabinets.cb_1p;rounded=0;comic=0;labelBackgroundColor=none;fontFamily=Verdana;fontSize=12" parent="1" vertex="1">
          <mxGeometry x="1156" y="2540" width="9" height="50" as="geometry" />
        </mxCell>
        <mxCell id="10ed09ecd0ef054a-78" value="" style="verticalLabelPosition=bottom;dashed=0;shadow=0;html=1;align=center;verticalAlign=top;strokeWidth=1;shape=mxgraph.cabinets.cb_1p;rounded=0;comic=0;labelBackgroundColor=none;fontFamily=Verdana;fontSize=12" parent="1" vertex="1">
          <mxGeometry x="1165" y="2540" width="9" height="50" as="geometry" />
        </mxCell>
        <mxCell id="10ed09ecd0ef054a-79" value="" style="verticalLabelPosition=bottom;dashed=0;shadow=0;html=1;align=center;verticalAlign=top;strokeWidth=1;shape=mxgraph.cabinets.cb_1p;rounded=0;comic=0;labelBackgroundColor=none;fontFamily=Verdana;fontSize=12" parent="1" vertex="1">
          <mxGeometry x="1174" y="2540" width="9" height="50" as="geometry" />
        </mxCell>
        <mxCell id="10ed09ecd0ef054a-80" value="" style="verticalLabelPosition=bottom;dashed=0;shadow=0;html=1;align=center;verticalAlign=top;strokeWidth=1;shape=mxgraph.cabinets.cb_1p;rounded=0;comic=0;labelBackgroundColor=none;fontFamily=Verdana;fontSize=12" parent="1" vertex="1">
          <mxGeometry x="1183" y="2540" width="9" height="50" as="geometry" />
        </mxCell>
        <mxCell id="10ed09ecd0ef054a-81" value="" style="verticalLabelPosition=bottom;dashed=0;shadow=0;html=1;align=center;verticalAlign=top;strokeWidth=1;shape=mxgraph.cabinets.cb_1p;rounded=0;comic=0;labelBackgroundColor=none;fontFamily=Verdana;fontSize=12" parent="1" vertex="1">
          <mxGeometry x="1192" y="2540" width="9" height="50" as="geometry" />
        </mxCell>
        <mxCell id="10ed09ecd0ef054a-82" value="" style="verticalLabelPosition=bottom;dashed=0;shadow=0;html=1;align=center;verticalAlign=top;strokeWidth=1;shape=mxgraph.cabinets.cb_1p;rounded=0;comic=0;labelBackgroundColor=none;fontFamily=Verdana;fontSize=12" parent="1" vertex="1">
          <mxGeometry x="1201" y="2540" width="9" height="50" as="geometry" />
        </mxCell>
        <mxCell id="10ed09ecd0ef054a-83" value="" style="verticalLabelPosition=bottom;dashed=0;shadow=0;html=1;align=center;verticalAlign=top;strokeWidth=1;shape=mxgraph.cabinets.cb_1p;rounded=0;comic=0;labelBackgroundColor=none;fontFamily=Verdana;fontSize=12" parent="1" vertex="1">
          <mxGeometry x="1210" y="2540" width="9" height="50" as="geometry" />
        </mxCell>
        <mxCell id="10ed09ecd0ef054a-84" value="" style="verticalLabelPosition=bottom;dashed=0;shadow=0;html=1;align=center;verticalAlign=top;strokeWidth=1;shape=mxgraph.cabinets.cb_1p;rounded=0;comic=0;labelBackgroundColor=none;fontFamily=Verdana;fontSize=12" parent="1" vertex="1">
          <mxGeometry x="1219" y="2540" width="9" height="50" as="geometry" />
        </mxCell>
        <mxCell id="10ed09ecd0ef054a-85" value="" style="verticalLabelPosition=bottom;dashed=0;shadow=0;html=1;align=center;verticalAlign=top;strokeWidth=1;shape=mxgraph.cabinets.cb_1p;rounded=0;comic=0;labelBackgroundColor=none;fontFamily=Verdana;fontSize=12" parent="1" vertex="1">
          <mxGeometry x="1228" y="2540" width="9" height="50" as="geometry" />
        </mxCell>
        <mxCell id="10ed09ecd0ef054a-86" value="" style="verticalLabelPosition=bottom;dashed=0;shadow=0;html=1;align=center;verticalAlign=top;strokeWidth=1;shape=mxgraph.cabinets.cb_1p;rounded=0;comic=0;labelBackgroundColor=none;fontFamily=Verdana;fontSize=12" parent="1" vertex="1">
          <mxGeometry x="1237" y="2540" width="9" height="50" as="geometry" />
        </mxCell>
        <mxCell id="10ed09ecd0ef054a-87" value="" style="verticalLabelPosition=bottom;dashed=0;shadow=0;html=1;align=center;verticalAlign=top;strokeWidth=1;shape=mxgraph.cabinets.cb_1p;rounded=0;comic=0;labelBackgroundColor=none;fontFamily=Verdana;fontSize=12" parent="1" vertex="1">
          <mxGeometry x="1246" y="2540" width="9" height="50" as="geometry" />
        </mxCell>
        <mxCell id="10ed09ecd0ef054a-88" value="" style="verticalLabelPosition=bottom;dashed=0;shadow=0;html=1;align=center;verticalAlign=top;strokeWidth=1;shape=mxgraph.cabinets.cb_1p;rounded=0;comic=0;labelBackgroundColor=none;fontFamily=Verdana;fontSize=12" parent="1" vertex="1">
          <mxGeometry x="1255" y="2540" width="9" height="50" as="geometry" />
        </mxCell>
        <mxCell id="10ed09ecd0ef054a-89" value="" style="verticalLabelPosition=bottom;dashed=0;shadow=0;html=1;align=center;verticalAlign=top;strokeWidth=1;shape=mxgraph.cabinets.cb_1p;rounded=0;comic=0;labelBackgroundColor=none;fontFamily=Verdana;fontSize=12" parent="1" vertex="1">
          <mxGeometry x="1264" y="2540" width="9" height="50" as="geometry" />
        </mxCell>
        <mxCell id="10ed09ecd0ef054a-90" value="" style="verticalLabelPosition=bottom;dashed=0;shadow=0;html=1;align=center;verticalAlign=top;strokeWidth=1;shape=mxgraph.cabinets.cb_1p;rounded=0;comic=0;labelBackgroundColor=none;fontFamily=Verdana;fontSize=12" parent="1" vertex="1">
          <mxGeometry x="1273" y="2540" width="9" height="50" as="geometry" />
        </mxCell>
        <mxCell id="10ed09ecd0ef054a-91" value="" style="verticalLabelPosition=bottom;dashed=0;shadow=0;html=1;align=center;verticalAlign=top;strokeWidth=1;shape=mxgraph.cabinets.cb_1p;rounded=0;comic=0;labelBackgroundColor=none;fontFamily=Verdana;fontSize=12" parent="1" vertex="1">
          <mxGeometry x="1282" y="2540" width="9" height="50" as="geometry" />
        </mxCell>
        <mxCell id="10ed09ecd0ef054a-92" value="" style="verticalLabelPosition=bottom;dashed=0;shadow=0;html=1;align=center;verticalAlign=top;strokeWidth=1;shape=mxgraph.cabinets.cb_1p;rounded=0;comic=0;labelBackgroundColor=none;fontFamily=Verdana;fontSize=12" parent="1" vertex="1">
          <mxGeometry x="1291" y="2540" width="9" height="50" as="geometry" />
        </mxCell>
        <mxCell id="10ed09ecd0ef054a-93" value="" style="verticalLabelPosition=bottom;dashed=0;shadow=0;html=1;align=center;verticalAlign=top;strokeWidth=1;shape=mxgraph.cabinets.cb_1p;rounded=0;comic=0;labelBackgroundColor=none;fontFamily=Verdana;fontSize=12" parent="1" vertex="1">
          <mxGeometry x="1300" y="2540" width="9" height="50" as="geometry" />
        </mxCell>
        <mxCell id="10ed09ecd0ef054a-94" value="" style="verticalLabelPosition=bottom;dashed=0;shadow=0;html=1;align=center;verticalAlign=top;strokeWidth=1;shape=mxgraph.cabinets.cb_1p;rounded=0;comic=0;labelBackgroundColor=none;fontFamily=Verdana;fontSize=12" parent="1" vertex="1">
          <mxGeometry x="1309" y="2540" width="9" height="50" as="geometry" />
        </mxCell>
        <mxCell id="10ed09ecd0ef054a-95" value="" style="verticalLabelPosition=bottom;dashed=0;shadow=0;html=1;align=center;verticalAlign=top;strokeWidth=1;shape=mxgraph.cabinets.cb_1p;rounded=0;comic=0;labelBackgroundColor=none;fontFamily=Verdana;fontSize=12" parent="1" vertex="1">
          <mxGeometry x="1318" y="2540" width="9" height="50" as="geometry" />
        </mxCell>
        <mxCell id="10ed09ecd0ef054a-96" value="" style="verticalLabelPosition=bottom;dashed=0;shadow=0;html=1;align=center;verticalAlign=top;strokeWidth=1;shape=mxgraph.cabinets.cb_1p;rounded=0;comic=0;labelBackgroundColor=none;fontFamily=Verdana;fontSize=12" parent="1" vertex="1">
          <mxGeometry x="1327" y="2540" width="9" height="50" as="geometry" />
        </mxCell>
        <mxCell id="10ed09ecd0ef054a-97" value="" style="verticalLabelPosition=bottom;dashed=0;shadow=0;html=1;align=center;verticalAlign=top;strokeWidth=1;shape=mxgraph.cabinets.cb_1p;rounded=0;comic=0;labelBackgroundColor=none;fontFamily=Verdana;fontSize=12" parent="1" vertex="1">
          <mxGeometry x="1336" y="2540" width="9" height="50" as="geometry" />
        </mxCell>
        <mxCell id="10ed09ecd0ef054a-98" value="60x40" style="shape=rect;dashed=0;shadow=0;html=1;whiteSpace=wrap;rounded=0;comic=0;labelBackgroundColor=none;strokeWidth=1;fontFamily=Verdana;fontSize=12;align=center;rotation=-90;" parent="1" vertex="1">
          <mxGeometry x="1134" y="2728" width="225" height="30" as="geometry" />
        </mxCell>
        <mxCell id="10ed09ecd0ef054a-99" value="40x40" style="shape=rect;dashed=0;shadow=0;html=1;whiteSpace=wrap;rounded=0;comic=0;labelBackgroundColor=none;strokeWidth=1;fontFamily=Verdana;fontSize=12;align=center;" parent="1" vertex="1">
          <mxGeometry x="1070" y="2731" width="161" height="20" as="geometry" />
        </mxCell>
        <mxCell id="10ed09ecd0ef054a-101" value="" style="verticalLabelPosition=bottom;dashed=0;shadow=0;html=1;align=center;verticalAlign=top;strokeWidth=1;shape=mxgraph.cabinets.cb_1p;rounded=0;comic=0;labelBackgroundColor=none;fontFamily=Verdana;fontSize=12" parent="1" vertex="1">
          <mxGeometry x="1071" y="2660" width="9" height="50" as="geometry" />
        </mxCell>
        <mxCell id="10ed09ecd0ef054a-102" value="" style="verticalLabelPosition=bottom;dashed=0;shadow=0;html=1;align=center;verticalAlign=top;strokeWidth=1;shape=mxgraph.cabinets.cb_1p;rounded=0;comic=0;labelBackgroundColor=none;fontFamily=Verdana;fontSize=12" parent="1" vertex="1">
          <mxGeometry x="1080" y="2660" width="9" height="50" as="geometry" />
        </mxCell>
        <mxCell id="10ed09ecd0ef054a-103" value="" style="verticalLabelPosition=bottom;dashed=0;shadow=0;html=1;align=center;verticalAlign=top;strokeWidth=1;shape=mxgraph.cabinets.cb_1p;rounded=0;comic=0;labelBackgroundColor=none;fontFamily=Verdana;fontSize=12" parent="1" vertex="1">
          <mxGeometry x="1089" y="2660" width="9" height="50" as="geometry" />
        </mxCell>
        <mxCell id="10ed09ecd0ef054a-104" value="" style="verticalLabelPosition=bottom;dashed=0;shadow=0;html=1;align=center;verticalAlign=top;strokeWidth=1;shape=mxgraph.cabinets.cb_1p;rounded=0;comic=0;labelBackgroundColor=none;fontFamily=Verdana;fontSize=12" parent="1" vertex="1">
          <mxGeometry x="1098" y="2660" width="9" height="50" as="geometry" />
        </mxCell>
        <mxCell id="10ed09ecd0ef054a-105" value="" style="verticalLabelPosition=bottom;dashed=0;shadow=0;html=1;align=center;verticalAlign=top;strokeWidth=1;shape=mxgraph.cabinets.cb_1p;rounded=0;comic=0;labelBackgroundColor=none;fontFamily=Verdana;fontSize=12" parent="1" vertex="1">
          <mxGeometry x="1107" y="2660" width="9" height="50" as="geometry" />
        </mxCell>
        <mxCell id="10ed09ecd0ef054a-106" value="" style="verticalLabelPosition=bottom;dashed=0;shadow=0;html=1;align=center;verticalAlign=top;strokeWidth=1;shape=mxgraph.cabinets.cb_1p;rounded=0;comic=0;labelBackgroundColor=none;fontFamily=Verdana;fontSize=12" parent="1" vertex="1">
          <mxGeometry x="1116" y="2660" width="9" height="50" as="geometry" />
        </mxCell>
        <mxCell id="10ed09ecd0ef054a-107" value="" style="verticalLabelPosition=bottom;dashed=0;shadow=0;html=1;align=center;verticalAlign=top;strokeWidth=1;shape=mxgraph.cabinets.cb_1p;rounded=0;comic=0;labelBackgroundColor=none;fontFamily=Verdana;fontSize=12" parent="1" vertex="1">
          <mxGeometry x="1125" y="2660" width="9" height="50" as="geometry" />
        </mxCell>
        <mxCell id="10ed09ecd0ef054a-108" value="" style="verticalLabelPosition=bottom;dashed=0;shadow=0;html=1;align=center;verticalAlign=top;strokeWidth=1;shape=mxgraph.cabinets.cb_1p;rounded=0;comic=0;labelBackgroundColor=none;fontFamily=Verdana;fontSize=12" parent="1" vertex="1">
          <mxGeometry x="1134" y="2660" width="9" height="50" as="geometry" />
        </mxCell>
        <mxCell id="10ed09ecd0ef054a-109" value="" style="verticalLabelPosition=bottom;dashed=0;shadow=0;html=1;align=center;verticalAlign=top;strokeWidth=1;shape=mxgraph.cabinets.cb_1p;rounded=0;comic=0;labelBackgroundColor=none;fontFamily=Verdana;fontSize=12" parent="1" vertex="1">
          <mxGeometry x="1143" y="2660" width="9" height="50" as="geometry" />
        </mxCell>
        <mxCell id="10ed09ecd0ef054a-110" value="" style="verticalLabelPosition=bottom;dashed=0;shadow=0;html=1;align=center;verticalAlign=top;strokeWidth=1;shape=mxgraph.cabinets.cb_1p;rounded=0;comic=0;labelBackgroundColor=none;fontFamily=Verdana;fontSize=12" parent="1" vertex="1">
          <mxGeometry x="1152" y="2660" width="9" height="50" as="geometry" />
        </mxCell>
        <mxCell id="10ed09ecd0ef054a-111" value="" style="verticalLabelPosition=bottom;dashed=0;shadow=0;html=1;align=center;verticalAlign=top;strokeWidth=1;shape=mxgraph.cabinets.cb_1p;rounded=0;comic=0;labelBackgroundColor=none;fontFamily=Verdana;fontSize=12" parent="1" vertex="1">
          <mxGeometry x="1161" y="2660" width="9" height="50" as="geometry" />
        </mxCell>
        <mxCell id="10ed09ecd0ef054a-112" value="" style="verticalLabelPosition=bottom;dashed=0;shadow=0;html=1;align=center;verticalAlign=top;strokeWidth=1;shape=mxgraph.cabinets.cb_1p;rounded=0;comic=0;labelBackgroundColor=none;fontFamily=Verdana;fontSize=12" parent="1" vertex="1">
          <mxGeometry x="1170" y="2660" width="9" height="50" as="geometry" />
        </mxCell>
        <mxCell id="10ed09ecd0ef054a-113" value="" style="verticalLabelPosition=bottom;dashed=0;shadow=0;html=1;align=center;verticalAlign=top;strokeWidth=1;shape=mxgraph.cabinets.cb_1p;rounded=0;comic=0;labelBackgroundColor=none;fontFamily=Verdana;fontSize=12" parent="1" vertex="1">
          <mxGeometry x="1179" y="2660" width="9" height="50" as="geometry" />
        </mxCell>
        <mxCell id="10ed09ecd0ef054a-114" value="" style="verticalLabelPosition=bottom;dashed=0;shadow=0;html=1;align=center;verticalAlign=top;strokeWidth=1;shape=mxgraph.cabinets.cb_1p;rounded=0;comic=0;labelBackgroundColor=none;fontFamily=Verdana;fontSize=12" parent="1" vertex="1">
          <mxGeometry x="1188" y="2660" width="9" height="50" as="geometry" />
        </mxCell>
        <mxCell id="10ed09ecd0ef054a-115" value="" style="verticalLabelPosition=bottom;dashed=0;shadow=0;html=1;align=center;verticalAlign=top;strokeWidth=1;shape=mxgraph.cabinets.cb_1p;rounded=0;comic=0;labelBackgroundColor=none;fontFamily=Verdana;fontSize=12" parent="1" vertex="1">
          <mxGeometry x="1197" y="2660" width="9" height="50" as="geometry" />
        </mxCell>
        <mxCell id="10ed09ecd0ef054a-116" value="" style="verticalLabelPosition=bottom;dashed=0;shadow=0;html=1;align=center;verticalAlign=top;strokeWidth=1;shape=mxgraph.cabinets.cb_1p;rounded=0;comic=0;labelBackgroundColor=none;fontFamily=Verdana;fontSize=12" parent="1" vertex="1">
          <mxGeometry x="1206" y="2660" width="9" height="50" as="geometry" />
        </mxCell>
        <mxCell id="10ed09ecd0ef054a-117" value="" style="verticalLabelPosition=bottom;dashed=0;shadow=0;html=1;align=center;verticalAlign=top;strokeWidth=1;shape=mxgraph.cabinets.cb_1p;rounded=0;comic=0;labelBackgroundColor=none;fontFamily=Verdana;fontSize=12" parent="1" vertex="1">
          <mxGeometry x="1215" y="2660" width="9" height="50" as="geometry" />
        </mxCell>
        <mxCell id="10ed09ecd0ef054a-118" value="" style="verticalLabelPosition=bottom;dashed=0;shadow=0;html=1;align=center;verticalAlign=top;strokeWidth=1;shape=mxgraph.cabinets.cb_1p;rounded=0;comic=0;labelBackgroundColor=none;fontFamily=Verdana;fontSize=12" parent="1" vertex="1">
          <mxGeometry x="1072" y="2765" width="9" height="50" as="geometry" />
        </mxCell>
        <mxCell id="10ed09ecd0ef054a-119" value="" style="verticalLabelPosition=bottom;dashed=0;shadow=0;html=1;align=center;verticalAlign=top;strokeWidth=1;shape=mxgraph.cabinets.cb_1p;rounded=0;comic=0;labelBackgroundColor=none;fontFamily=Verdana;fontSize=12" parent="1" vertex="1">
          <mxGeometry x="1081" y="2765" width="9" height="50" as="geometry" />
        </mxCell>
        <mxCell id="10ed09ecd0ef054a-120" value="" style="verticalLabelPosition=bottom;dashed=0;shadow=0;html=1;align=center;verticalAlign=top;strokeWidth=1;shape=mxgraph.cabinets.cb_1p;rounded=0;comic=0;labelBackgroundColor=none;fontFamily=Verdana;fontSize=12" parent="1" vertex="1">
          <mxGeometry x="1090" y="2765" width="9" height="50" as="geometry" />
        </mxCell>
        <mxCell id="10ed09ecd0ef054a-121" value="" style="verticalLabelPosition=bottom;dashed=0;shadow=0;html=1;align=center;verticalAlign=top;strokeWidth=1;shape=mxgraph.cabinets.cb_1p;rounded=0;comic=0;labelBackgroundColor=none;fontFamily=Verdana;fontSize=12" parent="1" vertex="1">
          <mxGeometry x="1099" y="2765" width="9" height="50" as="geometry" />
        </mxCell>
        <mxCell id="10ed09ecd0ef054a-122" value="" style="verticalLabelPosition=bottom;dashed=0;shadow=0;html=1;align=center;verticalAlign=top;strokeWidth=1;shape=mxgraph.cabinets.cb_1p;rounded=0;comic=0;labelBackgroundColor=none;fontFamily=Verdana;fontSize=12" parent="1" vertex="1">
          <mxGeometry x="1108" y="2765" width="9" height="50" as="geometry" />
        </mxCell>
        <mxCell id="10ed09ecd0ef054a-123" value="" style="verticalLabelPosition=bottom;dashed=0;shadow=0;html=1;align=center;verticalAlign=top;strokeWidth=1;shape=mxgraph.cabinets.cb_1p;rounded=0;comic=0;labelBackgroundColor=none;fontFamily=Verdana;fontSize=12" parent="1" vertex="1">
          <mxGeometry x="1117" y="2765" width="9" height="50" as="geometry" />
        </mxCell>
        <mxCell id="10ed09ecd0ef054a-124" value="" style="verticalLabelPosition=bottom;dashed=0;shadow=0;html=1;align=center;verticalAlign=top;strokeWidth=1;shape=mxgraph.cabinets.cb_1p;rounded=0;comic=0;labelBackgroundColor=none;fontFamily=Verdana;fontSize=12" parent="1" vertex="1">
          <mxGeometry x="1126" y="2765" width="9" height="50" as="geometry" />
        </mxCell>
        <mxCell id="10ed09ecd0ef054a-125" value="" style="verticalLabelPosition=bottom;dashed=0;shadow=0;html=1;align=center;verticalAlign=top;strokeWidth=1;shape=mxgraph.cabinets.cb_1p;rounded=0;comic=0;labelBackgroundColor=none;fontFamily=Verdana;fontSize=12" parent="1" vertex="1">
          <mxGeometry x="1135" y="2765" width="9" height="50" as="geometry" />
        </mxCell>
        <mxCell id="10ed09ecd0ef054a-126" value="" style="verticalLabelPosition=bottom;dashed=0;shadow=0;html=1;align=center;verticalAlign=top;strokeWidth=1;shape=mxgraph.cabinets.cb_1p;rounded=0;comic=0;labelBackgroundColor=none;fontFamily=Verdana;fontSize=12" parent="1" vertex="1">
          <mxGeometry x="1144" y="2765" width="9" height="50" as="geometry" />
        </mxCell>
        <mxCell id="10ed09ecd0ef054a-127" value="" style="verticalLabelPosition=bottom;dashed=0;shadow=0;html=1;align=center;verticalAlign=top;strokeWidth=1;shape=mxgraph.cabinets.cb_1p;rounded=0;comic=0;labelBackgroundColor=none;fontFamily=Verdana;fontSize=12" parent="1" vertex="1">
          <mxGeometry x="1153" y="2765" width="9" height="50" as="geometry" />
        </mxCell>
        <mxCell id="10ed09ecd0ef054a-128" value="" style="verticalLabelPosition=bottom;dashed=0;shadow=0;html=1;align=center;verticalAlign=top;strokeWidth=1;shape=mxgraph.cabinets.cb_1p;rounded=0;comic=0;labelBackgroundColor=none;fontFamily=Verdana;fontSize=12" parent="1" vertex="1">
          <mxGeometry x="1162" y="2765" width="9" height="50" as="geometry" />
        </mxCell>
        <mxCell id="10ed09ecd0ef054a-129" value="" style="verticalLabelPosition=bottom;dashed=0;shadow=0;html=1;align=center;verticalAlign=top;strokeWidth=1;shape=mxgraph.cabinets.cb_1p;rounded=0;comic=0;labelBackgroundColor=none;fontFamily=Verdana;fontSize=12" parent="1" vertex="1">
          <mxGeometry x="1171" y="2765" width="9" height="50" as="geometry" />
        </mxCell>
        <mxCell id="10ed09ecd0ef054a-130" value="" style="verticalLabelPosition=bottom;dashed=0;shadow=0;html=1;align=center;verticalAlign=top;strokeWidth=1;shape=mxgraph.cabinets.cb_1p;rounded=0;comic=0;labelBackgroundColor=none;fontFamily=Verdana;fontSize=12" parent="1" vertex="1">
          <mxGeometry x="1180" y="2765" width="9" height="50" as="geometry" />
        </mxCell>
        <mxCell id="10ed09ecd0ef054a-131" value="" style="verticalLabelPosition=bottom;dashed=0;shadow=0;html=1;align=center;verticalAlign=top;strokeWidth=1;shape=mxgraph.cabinets.cb_1p;rounded=0;comic=0;labelBackgroundColor=none;fontFamily=Verdana;fontSize=12" parent="1" vertex="1">
          <mxGeometry x="1189" y="2765" width="9" height="50" as="geometry" />
        </mxCell>
        <mxCell id="10ed09ecd0ef054a-132" value="" style="verticalLabelPosition=bottom;dashed=0;shadow=0;html=1;align=center;verticalAlign=top;strokeWidth=1;shape=mxgraph.cabinets.cb_1p;rounded=0;comic=0;labelBackgroundColor=none;fontFamily=Verdana;fontSize=12" parent="1" vertex="1">
          <mxGeometry x="1198" y="2765" width="9" height="50" as="geometry" />
        </mxCell>
        <mxCell id="10ed09ecd0ef054a-133" value="" style="verticalLabelPosition=bottom;dashed=0;shadow=0;html=1;align=center;verticalAlign=top;strokeWidth=1;shape=mxgraph.cabinets.cb_1p;rounded=0;comic=0;labelBackgroundColor=none;fontFamily=Verdana;fontSize=12" parent="1" vertex="1">
          <mxGeometry x="1207" y="2765" width="9" height="50" as="geometry" />
        </mxCell>
        <mxCell id="10ed09ecd0ef054a-134" value="" style="verticalLabelPosition=bottom;dashed=0;shadow=0;html=1;align=center;verticalAlign=top;strokeWidth=1;shape=mxgraph.cabinets.cb_1p;rounded=0;comic=0;labelBackgroundColor=none;fontFamily=Verdana;fontSize=12" parent="1" vertex="1">
          <mxGeometry x="1216" y="2765" width="9" height="50" as="geometry" />
        </mxCell>
        <mxCell id="M1WmX0pcGUZYGoduAmo--1" value="Static Double Slit Arm A" style="text;html=1;align=center;verticalAlign=middle;whiteSpace=wrap;rounded=0;" vertex="1" parent="1">
          <mxGeometry x="-20" y="510" width="60" height="30" as="geometry" />
        </mxCell>
        <mxCell id="M1WmX0pcGUZYGoduAmo--2" value="Static Double Slit Arm B" style="text;html=1;align=center;verticalAlign=middle;whiteSpace=wrap;rounded=0;" vertex="1" parent="1">
          <mxGeometry x="239.5" y="730" width="60" height="30" as="geometry" />
        </mxCell>
        <mxCell id="M1WmX0pcGUZYGoduAmo--3" value="" style="endArrow=classic;startArrow=classic;html=1;rounded=0;entryX=0.148;entryY=0.925;entryDx=0;entryDy=0;entryPerimeter=0;exitX=0.886;exitY=-0.167;exitDx=0;exitDy=0;exitPerimeter=0;" edge="1" parent="1" source="10ed09ecd0ef054a-6" target="10ed09ecd0ef054a-2">
          <mxGeometry width="50" height="50" relative="1" as="geometry">
            <mxPoint x="330" y="720" as="sourcePoint" />
            <mxPoint x="380" y="670" as="targetPoint" />
            <Array as="points">
              <mxPoint x="160" y="440" />
            </Array>
          </mxGeometry>
        </mxCell>
        <mxCell id="M1WmX0pcGUZYGoduAmo--4" value="500m" style="text;html=1;align=center;verticalAlign=middle;whiteSpace=wrap;rounded=0;" vertex="1" parent="1">
          <mxGeometry x="162" y="440" width="60" height="30" as="geometry" />
        </mxCell>
        <mxCell id="M1WmX0pcGUZYGoduAmo--6" value="" style="endArrow=classic;startArrow=classic;html=1;rounded=0;" edge="1" parent="1">
          <mxGeometry width="50" height="50" relative="1" as="geometry">
            <mxPoint x="220" y="590" as="sourcePoint" />
            <mxPoint x="390" y="590" as="targetPoint" />
          </mxGeometry>
        </mxCell>
        <mxCell id="M1WmX0pcGUZYGoduAmo--7" value="500m" style="text;html=1;align=center;verticalAlign=middle;whiteSpace=wrap;rounded=0;" vertex="1" parent="1">
          <mxGeometry x="278" y="550" width="60" height="30" as="geometry" />
        </mxCell>
        <mxCell id="M1WmX0pcGUZYGoduAmo--8" value="" style="whiteSpace=wrap;html=1;rounded=0;shadow=0;comic=0;labelBackgroundColor=none;strokeWidth=1;fontFamily=Verdana;fontSize=12;align=center;rotation=0;" vertex="1" parent="1">
          <mxGeometry x="-230" y="640" width="361" height="12" as="geometry" />
        </mxCell>
        <mxCell id="M1WmX0pcGUZYGoduAmo--9" value="" style="whiteSpace=wrap;html=1;rounded=0;shadow=0;comic=0;labelBackgroundColor=none;strokeWidth=1;fontFamily=Verdana;fontSize=12;align=center;rotation=-90;" vertex="1" parent="1">
          <mxGeometry x="-56.25" y="818.25" width="364.5" height="12" as="geometry" />
        </mxCell>
        <mxCell id="M1WmX0pcGUZYGoduAmo--10" value="" style="endArrow=classic;startArrow=classic;html=1;rounded=0;" edge="1" parent="1">
          <mxGeometry width="50" height="50" relative="1" as="geometry">
            <mxPoint x="-160" y="602" as="sourcePoint" />
            <mxPoint x="190" y="602" as="targetPoint" />
          </mxGeometry>
        </mxCell>
        <mxCell id="M1WmX0pcGUZYGoduAmo--11" value="1000m" style="text;html=1;align=center;verticalAlign=middle;whiteSpace=wrap;rounded=0;" vertex="1" parent="1">
          <mxGeometry x="-20" y="572" width="60" height="30" as="geometry" />
        </mxCell>
        <mxCell id="M1WmX0pcGUZYGoduAmo--12" value="" style="endArrow=classic;startArrow=classic;html=1;rounded=0;" edge="1" parent="1">
          <mxGeometry width="50" height="50" relative="1" as="geometry">
            <mxPoint x="160" y="580" as="sourcePoint" />
            <mxPoint x="160" y="910" as="targetPoint" />
          </mxGeometry>
        </mxCell>
        <mxCell id="M1WmX0pcGUZYGoduAmo--13" value="1000m" style="text;html=1;align=center;verticalAlign=middle;whiteSpace=wrap;rounded=0;rotation=90;" vertex="1" parent="1">
          <mxGeometry x="146" y="723.5" width="60" height="30" as="geometry" />
        </mxCell>
        <mxCell id="M1WmX0pcGUZYGoduAmo--14" value="Constant Velocity Double Slit Arm A" style="text;html=1;align=center;verticalAlign=middle;whiteSpace=wrap;rounded=0;" vertex="1" parent="1">
          <mxGeometry x="-380" y="626.5" width="130" height="39" as="geometry" />
        </mxCell>
        <mxCell id="M1WmX0pcGUZYGoduAmo--16" value="1000m" style="text;html=1;align=center;verticalAlign=middle;whiteSpace=wrap;rounded=0;" vertex="1" parent="1">
          <mxGeometry x="-90" y="652" width="60" height="30" as="geometry" />
        </mxCell>
        <mxCell id="M1WmX0pcGUZYGoduAmo--17" value="" style="endArrow=classic;startArrow=classic;html=1;rounded=0;" edge="1" parent="1">
          <mxGeometry width="50" height="50" relative="1" as="geometry">
            <mxPoint x="-230" y="682" as="sourcePoint" />
            <mxPoint x="120" y="682" as="targetPoint" />
          </mxGeometry>
        </mxCell>
        <mxCell id="M1WmX0pcGUZYGoduAmo--18" value="" style="endArrow=classic;startArrow=classic;html=1;rounded=0;" edge="1" parent="1">
          <mxGeometry width="50" height="50" relative="1" as="geometry">
            <mxPoint x="81" y="652" as="sourcePoint" />
            <mxPoint x="81" y="982" as="targetPoint" />
          </mxGeometry>
        </mxCell>
        <mxCell id="M1WmX0pcGUZYGoduAmo--19" value="1000m" style="text;html=1;align=center;verticalAlign=middle;whiteSpace=wrap;rounded=0;rotation=90;" vertex="1" parent="1">
          <mxGeometry x="71" y="809.25" width="60" height="30" as="geometry" />
        </mxCell>
        <mxCell id="M1WmX0pcGUZYGoduAmo--22" value="Constant Velocity Double Slit Arm B" style="text;html=1;align=center;verticalAlign=middle;whiteSpace=wrap;rounded=0;rotation=90;" vertex="1" parent="1">
          <mxGeometry x="61" y="1070" width="130" height="39" as="geometry" />
        </mxCell>
        <mxCell id="M1WmX0pcGUZYGoduAmo--23" value="" style="whiteSpace=wrap;html=1;rounded=0;shadow=0;comic=0;labelBackgroundColor=none;strokeWidth=1;fontFamily=Verdana;fontSize=12;align=center;rotation=0;" vertex="1" parent="1">
          <mxGeometry x="-317.25" y="713.5" width="361" height="12" as="geometry" />
        </mxCell>
        <mxCell id="M1WmX0pcGUZYGoduAmo--24" value="" style="whiteSpace=wrap;html=1;rounded=0;shadow=0;comic=0;labelBackgroundColor=none;strokeWidth=1;fontFamily=Verdana;fontSize=12;align=center;rotation=-90;" vertex="1" parent="1">
          <mxGeometry x="-143.5" y="891.75" width="364.5" height="12" as="geometry" />
        </mxCell>
        <mxCell id="M1WmX0pcGUZYGoduAmo--25" value="Accelerating Double Slit Arm A" style="text;html=1;align=center;verticalAlign=middle;whiteSpace=wrap;rounded=0;" vertex="1" parent="1">
          <mxGeometry x="-470" y="700" width="130" height="39" as="geometry" />
        </mxCell>
        <mxCell id="M1WmX0pcGUZYGoduAmo--26" value="1000m" style="text;html=1;align=center;verticalAlign=middle;whiteSpace=wrap;rounded=0;" vertex="1" parent="1">
          <mxGeometry x="-177.25" y="725.5" width="60" height="30" as="geometry" />
        </mxCell>
        <mxCell id="M1WmX0pcGUZYGoduAmo--27" value="" style="endArrow=classic;startArrow=classic;html=1;rounded=0;" edge="1" parent="1">
          <mxGeometry width="50" height="50" relative="1" as="geometry">
            <mxPoint x="-317.25" y="755.5" as="sourcePoint" />
            <mxPoint x="32.75" y="755.5" as="targetPoint" />
          </mxGeometry>
        </mxCell>
        <mxCell id="M1WmX0pcGUZYGoduAmo--28" value="" style="endArrow=classic;startArrow=classic;html=1;rounded=0;" edge="1" parent="1">
          <mxGeometry width="50" height="50" relative="1" as="geometry">
            <mxPoint x="-6.25" y="725.5" as="sourcePoint" />
            <mxPoint x="-6.25" y="1055.5" as="targetPoint" />
          </mxGeometry>
        </mxCell>
        <mxCell id="M1WmX0pcGUZYGoduAmo--29" value="1000m" style="text;html=1;align=center;verticalAlign=middle;whiteSpace=wrap;rounded=0;rotation=90;" vertex="1" parent="1">
          <mxGeometry x="-16.25" y="882.75" width="60" height="30" as="geometry" />
        </mxCell>
        <mxCell id="M1WmX0pcGUZYGoduAmo--30" value="Accelerating Double Slit Arm B" style="text;html=1;align=center;verticalAlign=middle;whiteSpace=wrap;rounded=0;rotation=90;" vertex="1" parent="1">
          <mxGeometry x="-26.25" y="1166.5" width="130" height="39" as="geometry" />
        </mxCell>
        <mxCell id="M1WmX0pcGUZYGoduAmo--31" value="" style="endArrow=classic;startArrow=classic;html=1;rounded=0;exitX=0.239;exitY=1.176;exitDx=0;exitDy=0;exitPerimeter=0;" edge="1" parent="1" source="M1WmX0pcGUZYGoduAmo--9">
          <mxGeometry width="50" height="50" relative="1" as="geometry">
            <mxPoint x="140" y="920" as="sourcePoint" />
            <mxPoint x="210" y="920" as="targetPoint" />
          </mxGeometry>
        </mxCell>
        <mxCell id="M1WmX0pcGUZYGoduAmo--32" value="~10-25m" style="text;html=1;align=center;verticalAlign=middle;whiteSpace=wrap;rounded=0;" vertex="1" parent="1">
          <mxGeometry x="141" y="920" width="60" height="30" as="geometry" />
        </mxCell>
        <mxCell id="M1WmX0pcGUZYGoduAmo--33" value="" style="endArrow=classic;startArrow=classic;html=1;rounded=0;exitX=0.201;exitY=1.194;exitDx=0;exitDy=0;exitPerimeter=0;entryX=0;entryY=1;entryDx=0;entryDy=0;" edge="1" parent="1" source="M1WmX0pcGUZYGoduAmo--24" target="M1WmX0pcGUZYGoduAmo--9">
          <mxGeometry width="50" height="50" relative="1" as="geometry">
            <mxPoint x="110" y="1040" as="sourcePoint" />
            <mxPoint x="140" y="1010" as="targetPoint" />
            <Array as="points" />
          </mxGeometry>
        </mxCell>
        <mxCell id="M1WmX0pcGUZYGoduAmo--34" value="~10-25m" style="text;html=1;align=center;verticalAlign=middle;whiteSpace=wrap;rounded=0;" vertex="1" parent="1">
          <mxGeometry x="51" y="1010" width="60" height="30" as="geometry" />
        </mxCell>
        <mxCell id="M1WmX0pcGUZYGoduAmo--35" value="" style="endArrow=classic;startArrow=classic;html=1;rounded=0;exitX=0;exitY=0.25;exitDx=0;exitDy=0;entryX=0.193;entryY=-0.134;entryDx=0;entryDy=0;entryPerimeter=0;" edge="1" parent="1" source="10ed09ecd0ef054a-6" target="M1WmX0pcGUZYGoduAmo--8">
          <mxGeometry width="50" height="50" relative="1" as="geometry">
            <mxPoint x="-140" y="710" as="sourcePoint" />
            <mxPoint x="-90" y="660" as="targetPoint" />
          </mxGeometry>
        </mxCell>
        <mxCell id="M1WmX0pcGUZYGoduAmo--36" value="" style="endArrow=classic;startArrow=classic;html=1;rounded=0;exitX=0;exitY=0.25;exitDx=0;exitDy=0;" edge="1" parent="1">
          <mxGeometry width="50" height="50" relative="1" as="geometry">
            <mxPoint x="-230" y="650.5" as="sourcePoint" />
            <mxPoint x="-230" y="710" as="targetPoint" />
          </mxGeometry>
        </mxCell>
        <mxCell id="M1WmX0pcGUZYGoduAmo--37" value="~10-25m" style="text;html=1;align=center;verticalAlign=middle;whiteSpace=wrap;rounded=0;" vertex="1" parent="1">
          <mxGeometry x="-220" y="580" width="60" height="30" as="geometry" />
        </mxCell>
        <mxCell id="M1WmX0pcGUZYGoduAmo--38" value="~10-25m" style="text;html=1;align=center;verticalAlign=middle;whiteSpace=wrap;rounded=0;" vertex="1" parent="1">
          <mxGeometry x="-300" y="670" width="60" height="30" as="geometry" />
        </mxCell>
        <mxCell id="M1WmX0pcGUZYGoduAmo--40" value="" style="endArrow=none;dashed=1;html=1;dashPattern=1 3;strokeWidth=2;rounded=0;" edge="1" parent="1">
          <mxGeometry width="50" height="50" relative="1" as="geometry">
            <mxPoint x="-560" y="760" as="sourcePoint" />
            <mxPoint x="130" y="-40" as="targetPoint" />
          </mxGeometry>
        </mxCell>
        <mxCell id="M1WmX0pcGUZYGoduAmo--41" value="" style="endArrow=none;dashed=1;html=1;dashPattern=1 3;strokeWidth=2;rounded=0;" edge="1" parent="1">
          <mxGeometry width="50" height="50" relative="1" as="geometry">
            <mxPoint x="130" y="-40" as="sourcePoint" />
            <mxPoint x="800" y="-40" as="targetPoint" />
          </mxGeometry>
        </mxCell>
        <mxCell id="M1WmX0pcGUZYGoduAmo--42" value="" style="endArrow=none;dashed=1;html=1;dashPattern=1 3;strokeWidth=2;rounded=0;" edge="1" parent="1">
          <mxGeometry width="50" height="50" relative="1" as="geometry">
            <mxPoint x="800" y="840" as="sourcePoint" />
            <mxPoint x="800" y="-40" as="targetPoint" />
          </mxGeometry>
        </mxCell>
        <mxCell id="M1WmX0pcGUZYGoduAmo--43" value="" style="endArrow=none;dashed=1;html=1;dashPattern=1 3;strokeWidth=2;rounded=0;" edge="1" parent="1">
          <mxGeometry width="50" height="50" relative="1" as="geometry">
            <mxPoint x="40" y="1320" as="sourcePoint" />
            <mxPoint x="800" y="840" as="targetPoint" />
          </mxGeometry>
        </mxCell>
        <mxCell id="M1WmX0pcGUZYGoduAmo--44" value="" style="endArrow=none;dashed=1;html=1;dashPattern=1 3;strokeWidth=2;rounded=0;" edge="1" parent="1">
          <mxGeometry width="50" height="50" relative="1" as="geometry">
            <mxPoint x="40" y="1320" as="sourcePoint" />
            <mxPoint x="-560" y="760" as="targetPoint" />
          </mxGeometry>
        </mxCell>
        <mxCell id="M1WmX0pcGUZYGoduAmo--46" value="&lt;h1 style=&quot;margin-top: 0px;&quot;&gt;Fig. A&lt;/h1&gt;" style="text;html=1;whiteSpace=wrap;overflow=hidden;rounded=0;" vertex="1" parent="1">
          <mxGeometry x="94" y="60" width="180" height="120" as="geometry" />
        </mxCell>
        <mxCell id="M1WmX0pcGUZYGoduAmo--47" value="&lt;font style=&quot;font-size: 11px;&quot;&gt;Accelerating Double Slit Arm A&lt;/font&gt;" style="text;html=1;align=center;verticalAlign=middle;whiteSpace=wrap;rounded=0;" vertex="1" parent="1">
          <mxGeometry x="-393.13" y="1529" width="106.25" height="30" as="geometry" />
        </mxCell>
        <mxCell id="M1WmX0pcGUZYGoduAmo--49" value="&lt;font face=&quot;Helvetica&quot; style=&quot;font-size: 11px;&quot;&gt;Speed Up&lt;/font&gt;" style="text;html=1;align=center;verticalAlign=middle;whiteSpace=wrap;rounded=0;" vertex="1" parent="1">
          <mxGeometry x="-9" y="1410" width="60" height="30" as="geometry" />
        </mxCell>
        <mxCell id="M1WmX0pcGUZYGoduAmo--50" value="&lt;font style=&quot;font-size: 11px;&quot;&gt;Slown Down&lt;/font&gt;" style="text;html=1;align=center;verticalAlign=middle;whiteSpace=wrap;rounded=0;" vertex="1" parent="1">
          <mxGeometry x="-210" y="1410" width="70" height="30" as="geometry" />
        </mxCell>
        <mxCell id="M1WmX0pcGUZYGoduAmo--54" value="" style="curved=1;endArrow=classic;html=1;rounded=0;" edge="1" parent="1" source="M1WmX0pcGUZYGoduAmo--170">
          <mxGeometry width="50" height="50" relative="1" as="geometry">
            <mxPoint x="80" y="1520" as="sourcePoint" />
            <mxPoint x="-100" y="1490" as="targetPoint" />
            <Array as="points">
              <mxPoint x="-70" y="1490" />
            </Array>
          </mxGeometry>
        </mxCell>
        <mxCell id="M1WmX0pcGUZYGoduAmo--59" value="" style="curved=1;endArrow=classic;html=1;rounded=0;" edge="1" parent="1">
          <mxGeometry width="50" height="50" relative="1" as="geometry">
            <mxPoint x="-101.5" y="1490" as="sourcePoint" />
            <mxPoint x="-270" y="1520" as="targetPoint" />
            <Array as="points">
              <mxPoint x="-168" y="1510" />
              <mxPoint x="-230" y="1510" />
            </Array>
          </mxGeometry>
        </mxCell>
        <mxCell id="M1WmX0pcGUZYGoduAmo--61" value="&lt;font style=&quot;font-size: 11px;&quot;&gt;Velocity&lt;/font&gt;" style="text;html=1;align=center;verticalAlign=middle;whiteSpace=wrap;rounded=0;" vertex="1" parent="1">
          <mxGeometry x="-9" y="1482" width="60" height="30" as="geometry" />
        </mxCell>
        <mxCell id="M1WmX0pcGUZYGoduAmo--62" value="" style="shape=flexArrow;endArrow=classic;html=1;rounded=0;" edge="1" parent="1">
          <mxGeometry width="50" height="50" relative="1" as="geometry">
            <mxPoint x="-120" y="1450" as="sourcePoint" />
            <mxPoint x="-267" y="1450" as="targetPoint" />
          </mxGeometry>
        </mxCell>
        <mxCell id="M1WmX0pcGUZYGoduAmo--63" value="&lt;font style=&quot;font-size: 11px;&quot;&gt;Emitter&lt;/font&gt;" style="text;html=1;align=center;verticalAlign=middle;whiteSpace=wrap;rounded=0;" vertex="1" parent="1">
          <mxGeometry x="94" y="1529" width="60" height="30" as="geometry" />
        </mxCell>
        <mxCell id="M1WmX0pcGUZYGoduAmo--64" value="" style="shape=flexArrow;endArrow=classic;html=1;rounded=0;" edge="1" parent="1">
          <mxGeometry width="50" height="50" relative="1" as="geometry">
            <mxPoint x="94" y="1450" as="sourcePoint" />
            <mxPoint x="-70" y="1449" as="targetPoint" />
          </mxGeometry>
        </mxCell>
        <mxCell id="10ed09ecd0ef054a-58" value="" style="verticalLabelPosition=bottom;dashed=0;shadow=0;html=1;align=center;verticalAlign=top;strokeWidth=1;shape=mxgraph.cabinets.motor_cb_1_32a;rounded=0;comic=0;labelBackgroundColor=none;fontFamily=Verdana;fontColor=#000000;" parent="1" vertex="1">
          <mxGeometry x="-110" y="1427" width="27" height="43" as="geometry" />
        </mxCell>
        <mxCell id="M1WmX0pcGUZYGoduAmo--65" value="" style="endArrow=classic;startArrow=classic;html=1;rounded=0;" edge="1" parent="1">
          <mxGeometry width="50" height="50" relative="1" as="geometry">
            <mxPoint x="-270" y="1370" as="sourcePoint" />
            <mxPoint x="93.5" y="1370" as="targetPoint" />
          </mxGeometry>
        </mxCell>
        <mxCell id="M1WmX0pcGUZYGoduAmo--66" value="1000m" style="text;html=1;align=center;verticalAlign=middle;whiteSpace=wrap;rounded=0;" vertex="1" parent="1">
          <mxGeometry x="-126.5" y="1340" width="60" height="30" as="geometry" />
        </mxCell>
        <mxCell id="M1WmX0pcGUZYGoduAmo--67" value="&lt;font style=&quot;font-size: 11px;&quot;&gt;Double Slit Setup&lt;/font&gt;" style="text;html=1;align=center;verticalAlign=middle;whiteSpace=wrap;rounded=0;" vertex="1" parent="1">
          <mxGeometry x="-126.5" y="1390" width="60" height="30" as="geometry" />
        </mxCell>
        <mxCell id="M1WmX0pcGUZYGoduAmo--134" value="&lt;font style=&quot;font-size: 7px;&quot;&gt;(Same Configuration for Arm B)&lt;/font&gt;" style="text;html=1;align=center;verticalAlign=middle;whiteSpace=wrap;rounded=0;" vertex="1" parent="1">
          <mxGeometry x="-400" y="1551" width="120" height="30" as="geometry" />
        </mxCell>
        <mxCell id="M1WmX0pcGUZYGoduAmo--135" value="" style="whiteSpace=wrap;html=1;rounded=0;shadow=0;comic=0;labelBackgroundColor=none;strokeWidth=1;fontFamily=Verdana;fontSize=12;align=center;rotation=0;" vertex="1" parent="1">
          <mxGeometry x="-267" y="1982.0000000000002" width="361" height="12" as="geometry" />
        </mxCell>
        <mxCell id="M1WmX0pcGUZYGoduAmo--136" value="&lt;font style=&quot;font-size: 11px;&quot;&gt;Constant Velocity Double Slit Arm A&lt;/font&gt;" style="text;html=1;align=center;verticalAlign=middle;whiteSpace=wrap;rounded=0;" vertex="1" parent="1">
          <mxGeometry x="-388.12" y="1973.0000000000002" width="106.25" height="30" as="geometry" />
        </mxCell>
        <mxCell id="M1WmX0pcGUZYGoduAmo--139" value="" style="curved=1;endArrow=classic;html=1;rounded=0;" edge="1" parent="1">
          <mxGeometry width="50" height="50" relative="1" as="geometry">
            <mxPoint x="80" y="1963.5800000000002" as="sourcePoint" />
            <mxPoint x="-100" y="1933.5800000000002" as="targetPoint" />
            <Array as="points">
              <mxPoint x="70" y="1934" />
              <mxPoint x="-70" y="1933.5800000000002" />
            </Array>
          </mxGeometry>
        </mxCell>
        <mxCell id="M1WmX0pcGUZYGoduAmo--140" value="" style="curved=1;endArrow=classic;html=1;rounded=0;" edge="1" parent="1">
          <mxGeometry width="50" height="50" relative="1" as="geometry">
            <mxPoint x="-101.5" y="1933.5800000000002" as="sourcePoint" />
            <mxPoint x="-270" y="1963.5800000000002" as="targetPoint" />
            <Array as="points">
              <mxPoint x="-230" y="1930" />
              <mxPoint x="-250" y="1940" />
            </Array>
          </mxGeometry>
        </mxCell>
        <mxCell id="M1WmX0pcGUZYGoduAmo--141" value="Velocity" style="text;html=1;align=center;verticalAlign=middle;whiteSpace=wrap;rounded=0;" vertex="1" parent="1">
          <mxGeometry x="-20" y="1930.0000000000002" width="60" height="30" as="geometry" />
        </mxCell>
        <mxCell id="M1WmX0pcGUZYGoduAmo--143" value="Emitter" style="text;html=1;align=center;verticalAlign=middle;whiteSpace=wrap;rounded=0;" vertex="1" parent="1">
          <mxGeometry x="93.5" y="1973.0000000000002" width="60" height="30" as="geometry" />
        </mxCell>
        <mxCell id="M1WmX0pcGUZYGoduAmo--144" value="" style="shape=flexArrow;endArrow=classic;html=1;rounded=0;" edge="1" parent="1">
          <mxGeometry width="50" height="50" relative="1" as="geometry">
            <mxPoint x="94" y="1893.5800000000002" as="sourcePoint" />
            <mxPoint x="-260" y="1893.92" as="targetPoint" />
          </mxGeometry>
        </mxCell>
        <mxCell id="M1WmX0pcGUZYGoduAmo--146" value="" style="endArrow=classic;startArrow=classic;html=1;rounded=0;" edge="1" parent="1">
          <mxGeometry width="50" height="50" relative="1" as="geometry">
            <mxPoint x="-267" y="1820.0000000000002" as="sourcePoint" />
            <mxPoint x="80" y="1820.0000000000002" as="targetPoint" />
          </mxGeometry>
        </mxCell>
        <mxCell id="M1WmX0pcGUZYGoduAmo--147" value="1000m" style="text;html=1;align=center;verticalAlign=middle;whiteSpace=wrap;rounded=0;" vertex="1" parent="1">
          <mxGeometry x="-126.5" y="1795.0000000000002" width="60" height="30" as="geometry" />
        </mxCell>
        <mxCell id="M1WmX0pcGUZYGoduAmo--148" value="&lt;font style=&quot;font-size: 11px;&quot;&gt;Double Slit Setup&lt;/font&gt;" style="text;html=1;align=center;verticalAlign=middle;whiteSpace=wrap;rounded=0;" vertex="1" parent="1">
          <mxGeometry x="-126.5" y="1833.5800000000002" width="60" height="30" as="geometry" />
        </mxCell>
        <mxCell id="M1WmX0pcGUZYGoduAmo--149" value="&lt;font style=&quot;font-size: 7px;&quot;&gt;(Same Configuration for Arm B)&lt;/font&gt;" style="text;html=1;align=center;verticalAlign=middle;whiteSpace=wrap;rounded=0;" vertex="1" parent="1">
          <mxGeometry x="-390" y="2003" width="110" height="30" as="geometry" />
        </mxCell>
        <mxCell id="M1WmX0pcGUZYGoduAmo--150" value="" style="shape=flexArrow;endArrow=classic;html=1;rounded=0;" edge="1" parent="1">
          <mxGeometry width="50" height="50" relative="1" as="geometry">
            <mxPoint x="-267" y="1628.5" as="sourcePoint" />
            <mxPoint x="-120" y="1629" as="targetPoint" />
          </mxGeometry>
        </mxCell>
        <mxCell id="M1WmX0pcGUZYGoduAmo--151" value="Speed Up" style="text;html=1;align=center;verticalAlign=middle;whiteSpace=wrap;rounded=0;" vertex="1" parent="1">
          <mxGeometry x="-229" y="1638.5" width="60" height="30" as="geometry" />
        </mxCell>
        <mxCell id="M1WmX0pcGUZYGoduAmo--152" value="" style="shape=flexArrow;endArrow=classic;html=1;rounded=0;" edge="1" parent="1">
          <mxGeometry width="50" height="50" relative="1" as="geometry">
            <mxPoint x="-70" y="1629" as="sourcePoint" />
            <mxPoint x="81" y="1628.5" as="targetPoint" />
          </mxGeometry>
        </mxCell>
        <mxCell id="M1WmX0pcGUZYGoduAmo--153" value="" style="verticalLabelPosition=bottom;dashed=0;shadow=0;html=1;align=center;verticalAlign=top;strokeWidth=1;shape=mxgraph.cabinets.motor_cb_1_32a;rounded=0;comic=0;labelBackgroundColor=none;fontFamily=Verdana;fontColor=#000000;" vertex="1" parent="1">
          <mxGeometry x="-110" y="1605.5" width="27" height="43" as="geometry" />
        </mxCell>
        <mxCell id="M1WmX0pcGUZYGoduAmo--154" value="Double Slit Setup" style="text;html=1;align=center;verticalAlign=middle;whiteSpace=wrap;rounded=0;fontSize=11;" vertex="1" parent="1">
          <mxGeometry x="-126.5" y="1652" width="60" height="30" as="geometry" />
        </mxCell>
        <mxCell id="M1WmX0pcGUZYGoduAmo--157" value="" style="curved=1;endArrow=classic;html=1;rounded=0;" edge="1" parent="1">
          <mxGeometry width="50" height="50" relative="1" as="geometry">
            <mxPoint x="-97" y="1570" as="sourcePoint" />
            <mxPoint x="83" y="1600" as="targetPoint" />
            <Array as="points">
              <mxPoint x="-67" y="1570" />
              <mxPoint x="-7" y="1590" />
            </Array>
          </mxGeometry>
        </mxCell>
        <mxCell id="M1WmX0pcGUZYGoduAmo--158" value="" style="curved=1;endArrow=classic;html=1;rounded=0;" edge="1" parent="1">
          <mxGeometry width="50" height="50" relative="1" as="geometry">
            <mxPoint x="-267" y="1600" as="sourcePoint" />
            <mxPoint x="-98.5" y="1570" as="targetPoint" />
            <Array as="points">
              <mxPoint x="-227" y="1590" />
              <mxPoint x="-165" y="1590" />
            </Array>
          </mxGeometry>
        </mxCell>
        <mxCell id="M1WmX0pcGUZYGoduAmo--159" value="&lt;font style=&quot;font-size: 11px;&quot;&gt;Velocity&lt;/font&gt;" style="text;html=1;align=center;verticalAlign=middle;whiteSpace=wrap;rounded=0;" vertex="1" parent="1">
          <mxGeometry x="-229" y="1559" width="60" height="30" as="geometry" />
        </mxCell>
        <mxCell id="M1WmX0pcGUZYGoduAmo--160" value="&lt;font style=&quot;font-size: 11px;&quot;&gt;Slown Down&lt;/font&gt;" style="text;html=1;align=center;verticalAlign=middle;whiteSpace=wrap;rounded=0;" vertex="1" parent="1">
          <mxGeometry x="-30" y="1642" width="70" height="30" as="geometry" />
        </mxCell>
        <mxCell id="M1WmX0pcGUZYGoduAmo--162" value="" style="verticalLabelPosition=bottom;dashed=0;shadow=0;html=1;align=center;verticalAlign=top;strokeWidth=1;shape=mxgraph.cabinets.motor_cb_1_32a;rounded=0;comic=0;labelBackgroundColor=none;fontFamily=Verdana;fontColor=#000000;" vertex="1" parent="1">
          <mxGeometry x="-110" y="1870.58" width="27" height="43" as="geometry" />
        </mxCell>
        <mxCell id="M1WmX0pcGUZYGoduAmo--163" value="" style="curved=1;endArrow=classic;html=1;rounded=0;" edge="1" parent="1">
          <mxGeometry width="50" height="50" relative="1" as="geometry">
            <mxPoint x="-97" y="2008.5800000000002" as="sourcePoint" />
            <mxPoint x="83" y="2038.58" as="targetPoint" />
            <Array as="points">
              <mxPoint x="-67" y="2008.5800000000002" />
              <mxPoint x="73" y="2009" />
            </Array>
          </mxGeometry>
        </mxCell>
        <mxCell id="M1WmX0pcGUZYGoduAmo--164" value="" style="curved=1;endArrow=classic;html=1;rounded=0;" edge="1" parent="1">
          <mxGeometry width="50" height="50" relative="1" as="geometry">
            <mxPoint x="-267" y="2038.58" as="sourcePoint" />
            <mxPoint x="-98.5" y="2008.5800000000002" as="targetPoint" />
            <Array as="points">
              <mxPoint x="-247" y="2015" />
              <mxPoint x="-227" y="2005" />
            </Array>
          </mxGeometry>
        </mxCell>
        <mxCell id="M1WmX0pcGUZYGoduAmo--165" value="Velocity" style="text;html=1;align=center;verticalAlign=middle;whiteSpace=wrap;rounded=0;direction=north;" vertex="1" parent="1">
          <mxGeometry x="-240" y="2000.0000000000002" width="30" height="60" as="geometry" />
        </mxCell>
        <mxCell id="M1WmX0pcGUZYGoduAmo--166" value="" style="shape=flexArrow;endArrow=classic;html=1;rounded=0;" edge="1" parent="1">
          <mxGeometry width="50" height="50" relative="1" as="geometry">
            <mxPoint x="-264" y="2090.34" as="sourcePoint" />
            <mxPoint x="90" y="2090" as="targetPoint" />
          </mxGeometry>
        </mxCell>
        <mxCell id="M1WmX0pcGUZYGoduAmo--167" value="&lt;font style=&quot;font-size: 11px;&quot;&gt;Double Slit Setup&lt;/font&gt;" style="text;html=1;align=center;verticalAlign=middle;whiteSpace=wrap;rounded=0;" vertex="1" parent="1">
          <mxGeometry x="-130.5" y="2030.0000000000002" width="60" height="30" as="geometry" />
        </mxCell>
        <mxCell id="M1WmX0pcGUZYGoduAmo--168" value="" style="verticalLabelPosition=bottom;dashed=0;shadow=0;html=1;align=center;verticalAlign=top;strokeWidth=1;shape=mxgraph.cabinets.motor_cb_1_32a;rounded=0;comic=0;labelBackgroundColor=none;fontFamily=Verdana;fontColor=#000000;" vertex="1" parent="1">
          <mxGeometry x="-114" y="2067" width="27" height="43" as="geometry" />
        </mxCell>
        <mxCell id="M1WmX0pcGUZYGoduAmo--169" value="" style="ellipse;whiteSpace=wrap;html=1;rounded=0;shadow=0;comic=0;labelBackgroundColor=none;strokeWidth=1;fontFamily=Verdana;fontSize=12;align=center;dashed=1;" vertex="1" parent="1">
          <mxGeometry x="-276" y="1596" width="12" height="12" as="geometry" />
        </mxCell>
        <mxCell id="M1WmX0pcGUZYGoduAmo--170" value="" style="ellipse;whiteSpace=wrap;html=1;rounded=0;shadow=0;comic=0;labelBackgroundColor=none;strokeWidth=1;fontFamily=Verdana;fontSize=12;align=center;dashed=1;" vertex="1" parent="1">
          <mxGeometry x="75" y="1517" width="12" height="12" as="geometry" />
        </mxCell>
        <mxCell id="M1WmX0pcGUZYGoduAmo--177" value="" style="ellipse;whiteSpace=wrap;html=1;rounded=0;shadow=0;comic=0;labelBackgroundColor=none;strokeWidth=1;fontFamily=Verdana;fontSize=12;align=center;dashed=1;" vertex="1" parent="1">
          <mxGeometry x="75" y="1960" width="12" height="12" as="geometry" />
        </mxCell>
        <mxCell id="M1WmX0pcGUZYGoduAmo--179" value="" style="ellipse;whiteSpace=wrap;html=1;rounded=0;shadow=0;comic=0;labelBackgroundColor=none;strokeWidth=1;fontFamily=Verdana;fontSize=12;align=center;dashed=1;" vertex="1" parent="1">
          <mxGeometry x="-276" y="2038" width="12" height="12" as="geometry" />
        </mxCell>
        <mxCell id="M1WmX0pcGUZYGoduAmo--181" value="" style="endArrow=none;dashed=1;html=1;dashPattern=1 3;strokeWidth=2;rounded=0;" edge="1" parent="1">
          <mxGeometry width="50" height="50" relative="1" as="geometry">
            <mxPoint x="200" y="1330" as="sourcePoint" />
            <mxPoint x="200" y="1720" as="targetPoint" />
          </mxGeometry>
        </mxCell>
        <mxCell id="M1WmX0pcGUZYGoduAmo--182" value="" style="endArrow=none;dashed=1;html=1;dashPattern=1 3;strokeWidth=2;rounded=0;" edge="1" parent="1">
          <mxGeometry width="50" height="50" relative="1" as="geometry">
            <mxPoint x="-480" y="1330" as="sourcePoint" />
            <mxPoint x="200" y="1330" as="targetPoint" />
          </mxGeometry>
        </mxCell>
        <mxCell id="M1WmX0pcGUZYGoduAmo--183" value="" style="endArrow=none;dashed=1;html=1;dashPattern=1 3;strokeWidth=2;rounded=0;" edge="1" parent="1">
          <mxGeometry width="50" height="50" relative="1" as="geometry">
            <mxPoint x="-480" y="1720" as="sourcePoint" />
            <mxPoint x="200" y="1720" as="targetPoint" />
          </mxGeometry>
        </mxCell>
        <mxCell id="M1WmX0pcGUZYGoduAmo--184" value="" style="endArrow=none;dashed=1;html=1;dashPattern=1 3;strokeWidth=2;rounded=0;" edge="1" parent="1">
          <mxGeometry width="50" height="50" relative="1" as="geometry">
            <mxPoint x="-480" y="1720" as="sourcePoint" />
            <mxPoint x="-480" y="1330" as="targetPoint" />
          </mxGeometry>
        </mxCell>
        <mxCell id="M1WmX0pcGUZYGoduAmo--185" value="&lt;h1 style=&quot;margin-top: 0px;&quot;&gt;Fig. B&lt;/h1&gt;" style="text;html=1;whiteSpace=wrap;overflow=hidden;rounded=0;" vertex="1" parent="1">
          <mxGeometry x="-447.5" y="1350" width="180" height="120" as="geometry" />
        </mxCell>
        <mxCell id="M1WmX0pcGUZYGoduAmo--186" value="" style="endArrow=none;dashed=1;html=1;dashPattern=1 3;strokeWidth=2;rounded=0;" edge="1" parent="1">
          <mxGeometry width="50" height="50" relative="1" as="geometry">
            <mxPoint x="199.75" y="1764.88" as="sourcePoint" />
            <mxPoint x="199.75" y="2154.88" as="targetPoint" />
          </mxGeometry>
        </mxCell>
        <mxCell id="M1WmX0pcGUZYGoduAmo--187" value="" style="endArrow=none;dashed=1;html=1;dashPattern=1 3;strokeWidth=2;rounded=0;" edge="1" parent="1">
          <mxGeometry width="50" height="50" relative="1" as="geometry">
            <mxPoint x="-480.25" y="1764.88" as="sourcePoint" />
            <mxPoint x="199.75" y="1764.88" as="targetPoint" />
          </mxGeometry>
        </mxCell>
        <mxCell id="M1WmX0pcGUZYGoduAmo--188" value="" style="endArrow=none;dashed=1;html=1;dashPattern=1 3;strokeWidth=2;rounded=0;" edge="1" parent="1">
          <mxGeometry width="50" height="50" relative="1" as="geometry">
            <mxPoint x="-480.25" y="2154.88" as="sourcePoint" />
            <mxPoint x="199.75" y="2154.88" as="targetPoint" />
          </mxGeometry>
        </mxCell>
        <mxCell id="M1WmX0pcGUZYGoduAmo--189" value="" style="endArrow=none;dashed=1;html=1;dashPattern=1 3;strokeWidth=2;rounded=0;" edge="1" parent="1">
          <mxGeometry width="50" height="50" relative="1" as="geometry">
            <mxPoint x="-480.25" y="2154.88" as="sourcePoint" />
            <mxPoint x="-480.25" y="1764.88" as="targetPoint" />
          </mxGeometry>
        </mxCell>
        <mxCell id="M1WmX0pcGUZYGoduAmo--190" value="&lt;h1 style=&quot;margin-top: 0px;&quot;&gt;Fig. C&lt;/h1&gt;" style="text;html=1;whiteSpace=wrap;overflow=hidden;rounded=0;" vertex="1" parent="1">
          <mxGeometry x="-444" y="1793.58" width="180" height="120" as="geometry" />
        </mxCell>
        <mxCell id="M1WmX0pcGUZYGoduAmo--191" value="LIGO" style="text;html=1;align=center;verticalAlign=middle;whiteSpace=wrap;rounded=0;" vertex="1" parent="1">
          <mxGeometry x="223" y="325" width="60" height="30" as="geometry" />
        </mxCell>
        <mxCell id="M1WmX0pcGUZYGoduAmo--192" value="" style="endArrow=classic;html=1;rounded=0;" edge="1" parent="1">
          <mxGeometry width="50" height="50" relative="1" as="geometry">
            <mxPoint x="500" y="430" as="sourcePoint" />
            <mxPoint x="440" y="370" as="targetPoint" />
          </mxGeometry>
        </mxCell>
        <mxCell id="M1WmX0pcGUZYGoduAmo--193" value="Beam Splitter" style="text;html=1;align=center;verticalAlign=middle;whiteSpace=wrap;rounded=0;" vertex="1" parent="1">
          <mxGeometry x="488" y="430" width="60" height="30" as="geometry" />
        </mxCell>
        <mxCell id="M1WmX0pcGUZYGoduAmo--194" value="Laser" style="text;html=1;align=center;verticalAlign=middle;whiteSpace=wrap;rounded=0;" vertex="1" parent="1">
          <mxGeometry x="747" y="325" width="60" height="30" as="geometry" />
        </mxCell>
        <mxCell id="M1WmX0pcGUZYGoduAmo--195" value="Test Mass" style="text;html=1;align=center;verticalAlign=middle;whiteSpace=wrap;rounded=0;" vertex="1" parent="1">
          <mxGeometry x="386.25" y="650" width="60" height="30" as="geometry" />
        </mxCell>
        <mxCell id="M1WmX0pcGUZYGoduAmo--196" value="Test Mass" style="text;html=1;align=center;verticalAlign=middle;whiteSpace=wrap;rounded=0;" vertex="1" parent="1">
          <mxGeometry x="-9.5" y="325" width="60" height="30" as="geometry" />
        </mxCell>
        <mxCell id="M1WmX0pcGUZYGoduAmo--197" value="Photo Detector" style="text;html=1;align=center;verticalAlign=middle;whiteSpace=wrap;rounded=0;" vertex="1" parent="1">
          <mxGeometry x="368" y="-30" width="96.5" height="30" as="geometry" />
        </mxCell>
      </root>
    </mxGraphModel>
  </diagram>
</mxfile>
